<svg width="210" height="32" viewBox="0 0 210 32" fill="none" xmlns="http://www.w3.org/2000/svg">
<path d="M27.0346 22.1057C32.4323 15.2295 28.7285 6.68452 24.0353 5.21267C21.6729 4.37495 19.0696 5.59244 17.7039 6.2438C16.1162 7.0011 11.5208 6.87811 10.0236 6.57477C9.23318 5.7382 8.63005 4.82651 8.03291 6.45219C7.61337 8.22246 9.17959 7.69821 9.92207 7.41246C11.5937 7.54711 15.821 6.92054 16.8889 8.14363C17.4139 8.74495 16.7369 11.1267 16.3945 12.0009C15.6371 13.9205 11.9913 13.6188 9.78651 14.3264C9.47256 14.4309 9.5604 15.317 10.0687 15.099C12.9744 13.9466 15.3814 13.9251 17.301 14.6137C21.1973 16.0114 24.4595 19.8481 23.862 23.8057C23.8457 24.3425 24.4444 24.3195 24.5558 23.9798C25.5248 21.0051 21.1138 15.2599 24.1664 13.0715C29.9266 8.88725 29.062 18.5314 26.3559 21.497C26.1444 22.0134 26.7041 22.5299 27.0346 22.1057V22.1057Z" fill="#37ABC8"/>
<path d="M16.2889 1.80003C7.21505 1.1207 1.95604 8.90772 2.66031 13.2892C3.19062 15.9964 4.95659 16.461 6.93127 17.7935C8.37724 18.7692 10.2293 21.859 10.573 23.41C10.2317 24.4811 9.7237 25.4425 11.5111 25.0617C13.3359 24.4632 12.0355 23.4908 11.3854 23.0495C10.8885 21.567 8.5367 18.938 9.08187 17.442C9.3499 16.7065 11.8643 15.9911 12.8367 15.8033C14.9748 15.3954 16.623 18.4611 18.426 19.846C18.6861 20.0412 19.4425 19.5041 18.9772 19.2138C16.4019 17.5045 15.1138 15.5968 14.7259 13.7035C13.9386 9.86048 15.6949 5.23764 19.595 3.62821C20.0898 3.35824 19.7535 2.89306 19.387 2.9833C16.1815 3.77857 13.3018 10.3232 9.71048 9.04283C2.88414 6.65565 11.9825 2.06749 16.0952 2.66197C16.6745 2.5584 16.8474 1.83997 16.2889 1.80003V1.80003Z" fill="#88AA00"/>
<path d="M4.01171 20.9425C7.77319 28.7188 16.9429 29.074 20.6878 26.3738C22.5407 25.1623 22.5335 22.9528 22.8197 20.6867C23.0293 19.0274 25.1483 16.6402 26.0754 14.8896C27.2396 14.6509 28.4998 14.2711 27.1614 13.3196C25.7194 12.2222 25.6188 13.1535 25.3457 14.3975C24.4391 15.8543 23.1095 18.8147 21.4503 19.0919C20.6346 19.2282 18.7495 17.511 18.1033 16.804C16.6873 15.2466 18.748 12.409 19.1662 10.2585C19.2222 9.95042 18.3551 9.58973 18.3097 10.1123C17.9631 13.0538 16.8079 15.035 15.2301 16.2705C12.0276 18.778 6.86573 19.5757 3.4758 17.1543C2.98434 16.8789 2.71344 17.3803 2.97508 17.6373C5.26934 19.883 12.7675 19.0766 13.313 22.6442C14.3931 29.4031 6.34697 24.3474 4.90935 20.684C4.53219 20.2587 3.77846 20.4648 4.01171 20.9425V20.9425Z" fill="#EB517A"/>
<path d="M47.44 23.28C46.1333 23.28 44.9867 22.98 44 22.38C43.0133 21.78 42.24 20.9333 41.68 19.84C41.1333 18.7467 40.86 17.48 40.86 16.04C40.86 14.5867 41.1333 13.3133 41.68 12.22C42.24 11.1267 43.0133 10.28 44 9.68C44.9867 9.08 46.1333 8.78 47.44 8.78C48.7733 8.78 49.9333 9.08 50.92 9.68C51.92 10.28 52.6933 11.1267 53.24 12.22C53.8 13.3 54.08 14.5733 54.08 16.04C54.08 17.4933 53.8 18.7667 53.24 19.86C52.68 20.94 51.9 21.78 50.9 22.38C49.9133 22.98 48.76 23.28 47.44 23.28ZM47.44 21.08C48.3333 21.08 49.1 20.8733 49.74 20.46C50.38 20.0467 50.8733 19.4667 51.22 18.72C51.58 17.96 51.76 17.0667 51.76 16.04C51.76 15 51.58 14.1067 51.22 13.36C50.8733 12.6 50.38 12.0133 49.74 11.6C49.1 11.1867 48.3333 10.98 47.44 10.98C46.5733 10.98 45.82 11.1867 45.18 11.6C44.54 12 44.04 12.58 43.68 13.34C43.3333 14.0867 43.16 14.9867 43.16 16.04C43.16 17.08 43.3333 17.98 43.68 18.74C44.0267 19.4867 44.52 20.0667 45.16 20.48C45.8133 20.88 46.5733 21.08 47.44 21.08ZM56.2609 27.08V13.14H58.4609V15.88L57.9009 15.9C58.0743 15.18 58.3276 14.6067 58.6609 14.18C59.0076 13.7533 59.4143 13.4467 59.8809 13.26C60.3609 13.06 60.8676 12.96 61.4009 12.96C62.2809 12.96 63.0409 13.1867 63.6809 13.64C64.3209 14.08 64.8143 14.6867 65.1609 15.46C65.5209 16.2333 65.7009 17.1067 65.7009 18.08C65.7009 19.1333 65.5076 20.0467 65.1209 20.82C64.7343 21.58 64.2143 22.1667 63.5609 22.58C62.9209 22.98 62.2009 23.18 61.4009 23.18C60.8409 23.18 60.3209 23.0733 59.8409 22.86C59.3743 22.6467 58.9743 22.3267 58.6409 21.9C58.3209 21.4733 58.0943 20.9533 57.9609 20.34L58.4609 20.24V27.08H56.2609ZM60.8609 21.16C61.3809 21.16 61.8343 21.0333 62.2209 20.78C62.6209 20.5267 62.9276 20.1667 63.1409 19.7C63.3543 19.2333 63.4609 18.6933 63.4609 18.08C63.4609 17.4667 63.3543 16.9267 63.1409 16.46C62.9276 15.9933 62.6209 15.6333 62.2209 15.38C61.8343 15.1267 61.3809 15 60.8609 15C60.3409 15 59.8809 15.1267 59.4809 15.38C59.0943 15.6333 58.7943 15.9933 58.5809 16.46C58.3676 16.9267 58.2609 17.4667 58.2609 18.08C58.2609 18.6933 58.3676 19.2333 58.5809 19.7C58.7943 20.1533 59.0943 20.5133 59.4809 20.78C59.8809 21.0333 60.3409 21.16 60.8609 21.16ZM72.163 23.18C71.3363 23.18 70.6163 23.0467 70.003 22.78C69.403 22.5133 68.9096 22.14 68.523 21.66C68.1363 21.18 67.8496 20.64 67.663 20.04C67.4763 19.4267 67.383 18.7933 67.383 18.14C67.383 17.4867 67.4696 16.8533 67.643 16.24C67.8296 15.6133 68.1096 15.0533 68.483 14.56C68.8563 14.0667 69.3363 13.68 69.923 13.4C70.5096 13.1067 71.203 12.96 72.003 12.96C72.763 12.96 73.423 13.0933 73.983 13.36C74.5563 13.6133 75.0296 13.9733 75.403 14.44C75.7763 14.8933 76.0496 15.4133 76.223 16C76.4096 16.5867 76.503 17.2133 76.503 17.88C76.503 17.9733 76.4963 18.1067 76.483 18.28C76.483 18.4533 76.4696 18.6267 76.443 18.8H69.603C69.6563 19.5867 69.923 20.1867 70.403 20.6C70.883 21.0133 71.4963 21.22 72.243 21.22C72.7896 21.22 73.2896 21.1333 73.743 20.96C74.1963 20.7867 74.6096 20.5133 74.983 20.14L76.203 21.62C75.7896 21.9933 75.3763 22.2933 74.963 22.52C74.5496 22.7467 74.1163 22.9133 73.663 23.02C73.223 23.1267 72.723 23.18 72.163 23.18ZM74.323 17.68C74.3496 17.5733 74.363 17.4667 74.363 17.36C74.3763 17.2533 74.383 17.1467 74.383 17.04C74.383 16.7467 74.3296 16.4667 74.223 16.2C74.1296 15.9333 73.983 15.7 73.783 15.5C73.583 15.2867 73.3363 15.12 73.043 15C72.7496 14.8667 72.4163 14.8 72.043 14.8C71.523 14.8 71.083 14.9133 70.723 15.14C70.3763 15.3667 70.103 15.66 69.903 16.02C69.7163 16.3667 69.603 16.7467 69.563 17.16H75.043L74.323 17.68ZM78.6633 23V13.14H80.8833V15.32L80.4833 15.42C80.6566 14.8467 80.9099 14.38 81.2433 14.02C81.5766 13.66 81.9633 13.3933 82.4033 13.22C82.8566 13.0467 83.3299 12.96 83.8233 12.96C84.9299 12.96 85.7899 13.28 86.4033 13.92C87.0299 14.5467 87.3433 15.4467 87.3433 16.62V23H85.1233V17.44C85.1233 16.56 84.9633 15.9133 84.6433 15.5C84.3233 15.0867 83.8299 14.88 83.1633 14.88C82.6699 14.88 82.2499 15 81.9033 15.24C81.5699 15.4667 81.3166 15.8267 81.1433 16.32C80.9699 16.8133 80.8833 17.44 80.8833 18.2V23H78.6633ZM99.6505 23.26C98.1838 23.26 96.9838 22.88 96.0505 22.12C95.1305 21.36 94.5638 20.3467 94.3505 19.08L96.6105 18.52C96.7571 19.4 97.1038 20.0667 97.6505 20.52C98.2105 20.9733 98.8971 21.2 99.7105 21.2C100.164 21.2 100.57 21.12 100.93 20.96C101.29 20.7867 101.57 20.5467 101.77 20.24C101.984 19.9333 102.09 19.5867 102.09 19.2C102.09 18.7867 101.977 18.4467 101.75 18.18C101.524 17.9 101.197 17.6533 100.77 17.44C100.344 17.2133 99.8238 16.98 99.2105 16.74C98.3705 16.42 97.6571 16.0733 97.0705 15.7C96.4838 15.3267 96.0371 14.8867 95.7305 14.38C95.4238 13.86 95.2705 13.2467 95.2705 12.54C95.2705 11.8067 95.4505 11.16 95.8105 10.6C96.1705 10.0267 96.6771 9.58 97.3305 9.26C97.9838 8.94 98.7371 8.78 99.5905 8.78C100.51 8.78 101.324 8.98667 102.03 9.4C102.737 9.81333 103.304 10.44 103.73 11.28L101.89 12.4C101.61 11.8933 101.27 11.5067 100.87 11.24C100.47 10.96 100.017 10.82 99.5105 10.82C99.1505 10.82 98.8238 10.8933 98.5305 11.04C98.2371 11.1733 98.0038 11.3667 97.8305 11.62C97.6705 11.8733 97.5905 12.1667 97.5905 12.5C97.5905 12.8467 97.6905 13.1533 97.8905 13.42C98.0905 13.6733 98.3971 13.9067 98.8105 14.12C99.2371 14.3333 99.7771 14.5667 100.43 14.82C101.27 15.14 101.984 15.4867 102.57 15.86C103.157 16.2333 103.604 16.68 103.91 17.2C104.23 17.7067 104.39 18.3267 104.39 19.06C104.39 19.8733 104.19 20.5933 103.79 21.22C103.39 21.8467 102.83 22.3467 102.11 22.72C101.404 23.08 100.584 23.26 99.6505 23.26ZM110.916 23.18C109.982 23.18 109.142 22.96 108.396 22.52C107.649 22.08 107.062 21.4733 106.636 20.7C106.222 19.9267 106.016 19.0467 106.016 18.06C106.016 17.0733 106.222 16.1933 106.636 15.42C107.062 14.6467 107.642 14.0467 108.376 13.62C109.122 13.18 109.969 12.96 110.916 12.96C111.876 12.96 112.716 13.18 113.436 13.62C114.169 14.0467 114.749 14.6467 115.176 15.42C115.602 16.1933 115.816 17.0733 115.816 18.06C115.816 19.0467 115.602 19.9267 115.176 20.7C114.762 21.4733 114.182 22.08 113.436 22.52C112.702 22.96 111.862 23.18 110.916 23.18ZM110.936 21.22C111.482 21.22 111.956 21.0933 112.356 20.84C112.756 20.5867 113.062 20.22 113.276 19.74C113.489 19.26 113.596 18.7 113.596 18.06C113.596 17.4067 113.489 16.8467 113.276 16.38C113.062 15.9 112.756 15.5333 112.356 15.28C111.956 15.0267 111.482 14.9 110.936 14.9C110.362 14.9 109.876 15.0333 109.476 15.3C109.076 15.5533 108.769 15.9133 108.556 16.38C108.342 16.8467 108.236 17.4067 108.236 18.06C108.236 18.7 108.342 19.26 108.556 19.74C108.769 20.22 109.076 20.5867 109.476 20.84C109.876 21.0933 110.362 21.22 110.936 21.22ZM121.38 23.18C120.607 23.18 119.953 23.0267 119.42 22.72C118.9 22.4133 118.507 21.9733 118.24 21.4C117.973 20.8267 117.84 20.1333 117.84 19.32V13.14H120.06V18.72C120.06 19.24 120.12 19.6933 120.24 20.08C120.373 20.4533 120.58 20.74 120.86 20.94C121.153 21.14 121.547 21.24 122.04 21.24C122.613 21.24 123.06 21.0933 123.38 20.8C123.713 20.4933 123.947 20.0533 124.08 19.48C124.227 18.8933 124.3 18.1933 124.3 17.38V13.14H126.52V23H124.3V20.88L124.68 21.02C124.373 21.7667 123.927 22.3133 123.34 22.66C122.767 23.0067 122.113 23.18 121.38 23.18ZM129.132 23V13.14H131.372V15.8L130.952 15.86C131.019 15.2867 131.212 14.7867 131.532 14.36C131.852 13.92 132.239 13.58 132.692 13.34C133.159 13.0867 133.619 12.96 134.072 12.96C134.392 12.96 134.699 13 134.992 13.08C135.285 13.16 135.592 13.2933 135.912 13.48L134.832 15.48C134.685 15.3867 134.492 15.3133 134.252 15.26C134.025 15.1933 133.805 15.16 133.592 15.16C133.312 15.16 133.032 15.2133 132.752 15.32C132.485 15.4267 132.245 15.5933 132.032 15.82C131.819 16.0333 131.659 16.3133 131.552 16.66C131.485 16.8467 131.432 17.0933 131.392 17.4C131.365 17.6933 131.352 18.1067 131.352 18.64V23H129.132ZM141.244 23.18C140.47 23.18 139.784 23.0467 139.184 22.78C138.597 22.5 138.104 22.12 137.704 21.64C137.317 21.1467 137.024 20.5933 136.824 19.98C136.624 19.3667 136.524 18.7267 136.524 18.06C136.524 17.3933 136.624 16.7533 136.824 16.14C137.024 15.5267 137.317 14.98 137.704 14.5C138.104 14.02 138.597 13.6467 139.184 13.38C139.784 13.1 140.47 12.96 141.244 12.96C142.217 12.96 143.064 13.1933 143.784 13.66C144.517 14.1267 145.057 14.8467 145.404 15.82L143.444 16.58C143.284 16.0733 143.024 15.6667 142.664 15.36C142.304 15.04 141.83 14.88 141.244 14.88C140.657 14.88 140.177 15.0333 139.804 15.34C139.444 15.6467 139.177 16.04 139.004 16.52C138.83 17 138.744 17.5133 138.744 18.06C138.744 18.6067 138.83 19.1267 139.004 19.62C139.177 20.1 139.444 20.4933 139.804 20.8C140.177 21.0933 140.657 21.24 141.244 21.24C141.83 21.24 142.304 21.0867 142.664 20.78C143.024 20.4733 143.284 20.0667 143.444 19.56L145.404 20.32C145.057 21.28 144.517 22 143.784 22.48C143.064 22.9467 142.217 23.18 141.244 23.18ZM151.733 23.18C150.907 23.18 150.187 23.0467 149.573 22.78C148.973 22.5133 148.48 22.14 148.093 21.66C147.707 21.18 147.42 20.64 147.233 20.04C147.047 19.4267 146.953 18.7933 146.953 18.14C146.953 17.4867 147.04 16.8533 147.213 16.24C147.4 15.6133 147.68 15.0533 148.053 14.56C148.427 14.0667 148.907 13.68 149.493 13.4C150.08 13.1067 150.773 12.96 151.573 12.96C152.333 12.96 152.993 13.0933 153.553 13.36C154.127 13.6133 154.6 13.9733 154.973 14.44C155.347 14.8933 155.62 15.4133 155.793 16C155.98 16.5867 156.073 17.2133 156.073 17.88C156.073 17.9733 156.067 18.1067 156.053 18.28C156.053 18.4533 156.04 18.6267 156.013 18.8H149.173C149.227 19.5867 149.493 20.1867 149.973 20.6C150.453 21.0133 151.067 21.22 151.813 21.22C152.36 21.22 152.86 21.1333 153.313 20.96C153.767 20.7867 154.18 20.5133 154.553 20.14L155.773 21.62C155.36 21.9933 154.947 22.2933 154.533 22.52C154.12 22.7467 153.687 22.9133 153.233 23.02C152.793 23.1267 152.293 23.18 151.733 23.18ZM153.893 17.68C153.92 17.5733 153.933 17.4667 153.933 17.36C153.947 17.2533 153.953 17.1467 153.953 17.04C153.953 16.7467 153.9 16.4667 153.793 16.2C153.7 15.9333 153.553 15.7 153.353 15.5C153.153 15.2867 152.907 15.12 152.613 15C152.32 14.8667 151.987 14.8 151.613 14.8C151.093 14.8 150.653 14.9133 150.293 15.14C149.947 15.3667 149.673 15.66 149.473 16.02C149.287 16.3667 149.173 16.7467 149.133 17.16H154.613L153.893 17.68ZM163.549 23V9.06H168.309C169.669 9.06 170.736 9.37333 171.509 10C172.296 10.6133 172.689 11.4667 172.689 12.56C172.689 13.2267 172.549 13.8133 172.269 14.32C171.989 14.8133 171.596 15.2067 171.089 15.5C171.862 15.7533 172.442 16.1733 172.829 16.76C173.216 17.3467 173.409 18.08 173.409 18.96C173.409 20.2267 173.009 21.22 172.209 21.94C171.422 22.6467 170.316 23 168.889 23H163.549ZM165.869 20.88H168.709C170.309 20.88 171.109 20.2067 171.109 18.86C171.109 18.22 170.916 17.7267 170.529 17.38C170.156 17.02 169.629 16.84 168.949 16.84H165.869V20.88ZM165.869 14.76H168.469C169.056 14.76 169.522 14.6 169.869 14.28C170.216 13.9467 170.389 13.4933 170.389 12.92C170.389 12.3733 170.202 11.9467 169.829 11.64C169.469 11.3333 168.962 11.18 168.309 11.18H165.869V14.76ZM175.597 23V13.14H177.837V15.8L177.417 15.86C177.484 15.2867 177.677 14.7867 177.997 14.36C178.317 13.92 178.704 13.58 179.157 13.34C179.624 13.0867 180.084 12.96 180.537 12.96C180.857 12.96 181.164 13 181.457 13.08C181.75 13.16 182.057 13.2933 182.377 13.48L181.297 15.48C181.15 15.3867 180.957 15.3133 180.717 15.26C180.49 15.1933 180.27 15.16 180.057 15.16C179.777 15.16 179.497 15.2133 179.217 15.32C178.95 15.4267 178.71 15.5933 178.497 15.82C178.284 16.0333 178.124 16.3133 178.017 16.66C177.95 16.8467 177.897 17.0933 177.857 17.4C177.83 17.6933 177.817 18.1067 177.817 18.64V23H175.597ZM190.14 23L189.98 21.34V16.78C189.98 16.14 189.787 15.66 189.4 15.34C189.014 15.0067 188.474 14.84 187.78 14.84C187.247 14.84 186.72 14.9467 186.2 15.16C185.694 15.36 185.227 15.6733 184.8 16.1L183.56 14.64C184.2 14.04 184.88 13.6133 185.6 13.36C186.32 13.0933 187.107 12.96 187.96 12.96C189.294 12.96 190.327 13.3 191.06 13.98C191.807 14.6467 192.18 15.58 192.18 16.78V23H190.14ZM187.08 23.18C186.347 23.18 185.694 23.0467 185.12 22.78C184.56 22.5133 184.12 22.14 183.8 21.66C183.494 21.18 183.34 20.62 183.34 19.98C183.34 19.4333 183.454 18.96 183.68 18.56C183.92 18.16 184.227 17.8467 184.6 17.62C184.92 17.42 185.294 17.28 185.72 17.2C186.147 17.1067 186.594 17.06 187.06 17.06H190.16V18.72H187.38C187.14 18.72 186.9 18.7467 186.66 18.8C186.42 18.84 186.207 18.92 186.02 19.04C185.887 19.1467 185.774 19.28 185.68 19.44C185.6 19.6 185.56 19.7867 185.56 20C185.56 20.4267 185.72 20.7667 186.04 21.02C186.374 21.26 186.814 21.38 187.36 21.38C187.84 21.38 188.274 21.2733 188.66 21.06C189.06 20.8467 189.38 20.5533 189.62 20.18C189.86 19.8067 189.98 19.3867 189.98 18.92L190.66 20.02C190.5 20.7133 190.247 21.3 189.9 21.78C189.554 22.2467 189.14 22.6 188.66 22.84C188.18 23.0667 187.654 23.18 187.08 23.18ZM194.639 23V13.14H196.859V23H194.639ZM195.739 11.56C195.379 11.56 195.066 11.4267 194.799 11.16C194.546 10.8933 194.419 10.5733 194.419 10.2C194.419 9.82667 194.546 9.51333 194.799 9.26C195.053 9.00667 195.366 8.88 195.739 8.88C196.113 8.88 196.426 9.00667 196.679 9.26C196.946 9.51333 197.079 9.82667 197.079 10.2C197.079 10.5733 196.946 10.8933 196.679 11.16C196.426 11.4267 196.113 11.56 195.739 11.56ZM199.445 23V13.14H201.665V15.32L201.265 15.42C201.438 14.8467 201.691 14.38 202.025 14.02C202.358 13.66 202.745 13.3933 203.185 13.22C203.638 13.0467 204.111 12.96 204.605 12.96C205.711 12.96 206.571 13.28 207.185 13.92C207.811 14.5467 208.125 15.4467 208.125 16.62V23H205.905V17.44C205.905 16.56 205.745 15.9133 205.425 15.5C205.105 15.0867 204.611 14.88 203.945 14.88C203.451 14.88 203.031 15 202.685 15.24C202.351 15.4667 202.098 15.8267 201.925 16.32C201.751 16.8133 201.665 17.44 201.665 18.2V23H199.445Z" fill="black"/>
</svg>
