<?xml version="1.0" encoding="UTF-8" standalone="no"?>
<svg
   width="27.107761"
   height="26.140739"
   viewBox="0 0 27.107761 26.140739"
   fill="none"
   version="1.1"
   id="svg10"
   sodipodi:docname="OSB logo new dark notext.svg"
   inkscape:version="1.2.2 (b0a8486541, 2022-12-01)"
   xmlns:inkscape="http://www.inkscape.org/namespaces/inkscape"
   xmlns:sodipodi="http://sodipodi.sourceforge.net/DTD/sodipodi-0.dtd"
   xmlns="http://www.w3.org/2000/svg"
   xmlns:svg="http://www.w3.org/2000/svg">
  <defs
     id="defs14" />
  <sodipodi:namedview
     id="namedview12"
     pagecolor="#ffffff"
     bordercolor="#666666"
     borderopacity="1.0"
     inkscape:showpageshadow="2"
     inkscape:pageopacity="0.0"
     inkscape:pagecheckerboard="0"
     inkscape:deskcolor="#d1d1d1"
     showgrid="false"
     inkscape:zoom="6.7904762"
     inkscape:cx="89.537167"
     inkscape:cy="14.358345"
     inkscape:window-width="1920"
     inkscape:window-height="1011"
     inkscape:window-x="0"
     inkscape:window-y="32"
     inkscape:window-maximized="1"
     inkscape:current-layer="svg10" />
  <g
     id="g177"
     transform="translate(-2.5974791,-1.7583476)">
    <path
       d="M 27.0346,22.1057 C 32.4323,15.2295 28.7285,6.68452 24.0353,5.21267 21.6729,4.37495 19.0696,5.59244 17.7039,6.2438 16.1162,7.0011 11.5208,6.87811 10.0236,6.57477 9.23318,5.7382 8.63005,4.82651 8.03291,6.45219 7.61337,8.22246 9.17959,7.69821 9.92207,7.41246 11.5937,7.54711 15.821,6.92054 16.8889,8.14363 c 0.525,0.60132 -0.152,2.98307 -0.4944,3.85727 -0.7574,1.9196 -4.4032,1.6179 -6.60799,2.3255 -0.31395,0.1045 -0.22611,0.9906 0.28219,0.7726 2.9057,-1.1524 5.3127,-1.1739 7.2323,-0.4853 3.8963,1.3977 7.1585,5.2344 6.561,9.192 -0.0163,0.5368 0.5824,0.5138 0.6938,0.1741 0.969,-2.9747 -3.442,-8.7199 -0.3894,-10.9083 5.7602,-4.18425 4.8956,5.4599 2.1895,8.4255 -0.2115,0.5164 0.3482,1.0329 0.6787,0.6087 z"
       fill="#37abc8"
       id="path2" />
    <path
       d="M 16.2889,1.80003 C 7.21505,1.1207 1.95604,8.90772 2.66031,13.2892 c 0.53031,2.7072 2.29628,3.1718 4.27096,4.5043 1.44597,0.9757 3.29803,4.0655 3.64173,5.6165 -0.3413,1.0711 -0.8493,2.0325 0.9381,1.6517 1.8248,-0.5985 0.5244,-1.5709 -0.1257,-2.0122 C 10.8885,21.567 8.5367,18.938 9.08187,17.442 9.3499,16.7065 11.8643,15.9911 12.8367,15.8033 c 2.1381,-0.4079 3.7863,2.6578 5.5893,4.0427 0.2601,0.1952 1.0165,-0.3419 0.5512,-0.6322 -2.5753,-1.7093 -3.8634,-3.617 -4.2513,-5.5103 C 13.9386,9.86048 15.6949,5.23764 19.595,3.62821 20.0898,3.35824 19.7535,2.89306 19.387,2.9833 16.1815,3.77857 13.3018,10.3232 9.71048,9.04283 2.88414,6.65565 11.9825,2.06749 16.0952,2.66197 16.6745,2.5584 16.8474,1.83997 16.2889,1.80003 Z"
       fill="#88aa00"
       id="path4" />
    <path
       d="m 4.01171,20.9425 c 3.76148,7.7763 12.93119,8.1315 16.67609,5.4313 1.8529,-1.2115 1.8457,-3.421 2.1319,-5.6871 0.2096,-1.6593 2.3286,-4.0465 3.2557,-5.7971 1.1642,-0.2387 2.4244,-0.6185 1.086,-1.57 -1.442,-1.0974 -1.5426,-0.1661 -1.8157,1.0779 -0.9066,1.4568 -2.2362,4.4172 -3.8954,4.6944 -0.8157,0.1363 -2.7008,-1.5809 -3.347,-2.2879 -1.416,-1.5574 0.6447,-4.395 1.0629,-6.5455 0.056,-0.30808 -0.8111,-0.66877 -0.8565,-0.1462 -0.3466,2.9415 -1.5018,4.9227 -3.0796,6.1582 -3.2025,2.5075 -8.36437,3.3052 -11.7543,0.8838 -0.49146,-0.2754 -0.76236,0.226 -0.50072,0.483 2.29426,2.2457 9.79242,1.4393 10.33792,5.0069 1.0801,6.7589 -6.96603,1.7032 -8.40365,-1.9602 -0.37716,-0.4253 -1.13089,-0.2192 -0.89764,0.2585 z"
       fill="#eb517a"
       id="path6" />
  </g>
</svg>
