<svg width="176" height="32" viewBox="0 0 176 32" fill="none" xmlns="http://www.w3.org/2000/svg">
<path d="M27.0346 22.1057C32.4323 15.2295 28.7285 6.68452 24.0353 5.21267C21.6729 4.37495 19.0696 5.59244 17.7039 6.2438C16.1162 7.0011 11.5208 6.87811 10.0236 6.57477C9.23318 5.7382 8.63005 4.82651 8.03291 6.45219C7.61337 8.22246 9.17959 7.69821 9.92207 7.41246C11.5937 7.54711 15.821 6.92054 16.8889 8.14363C17.4139 8.74495 16.7369 11.1267 16.3945 12.0009C15.6371 13.9205 11.9913 13.6188 9.78651 14.3264C9.47256 14.4309 9.5604 15.317 10.0687 15.099C12.9744 13.9466 15.3814 13.9251 17.301 14.6137C21.1973 16.0114 24.4595 19.8481 23.862 23.8057C23.8457 24.3425 24.4444 24.3195 24.5558 23.9798C25.5248 21.0051 21.1138 15.2599 24.1664 13.0715C29.9266 8.88725 29.062 18.5314 26.3559 21.497C26.1444 22.0134 26.7041 22.5299 27.0346 22.1057V22.1057Z" fill="#37ABC8"/>
<path d="M16.2889 1.80003C7.21505 1.1207 1.95604 8.90772 2.66031 13.2892C3.19062 15.9964 4.95659 16.461 6.93127 17.7935C8.37724 18.7692 10.2293 21.859 10.573 23.41C10.2317 24.4811 9.7237 25.4425 11.5111 25.0617C13.3359 24.4632 12.0355 23.4908 11.3854 23.0495C10.8885 21.567 8.5367 18.938 9.08187 17.442C9.3499 16.7065 11.8643 15.9911 12.8367 15.8033C14.9748 15.3954 16.623 18.4611 18.426 19.846C18.6861 20.0412 19.4425 19.5041 18.9772 19.2138C16.4019 17.5045 15.1138 15.5968 14.7259 13.7035C13.9386 9.86048 15.6949 5.23764 19.595 3.62821C20.0898 3.35824 19.7535 2.89306 19.387 2.9833C16.1815 3.77857 13.3018 10.3232 9.71048 9.04283C2.88414 6.65565 11.9825 2.06749 16.0952 2.66197C16.6745 2.5584 16.8474 1.83997 16.2889 1.80003V1.80003Z" fill="#88AA00"/>
<path d="M4.01171 20.9425C7.77319 28.7188 16.9429 29.074 20.6878 26.3738C22.5407 25.1623 22.5335 22.9528 22.8197 20.6867C23.0293 19.0274 25.1483 16.6402 26.0754 14.8896C27.2396 14.6509 28.4998 14.2711 27.1614 13.3196C25.7194 12.2222 25.6188 13.1535 25.3457 14.3975C24.4391 15.8543 23.1095 18.8147 21.4503 19.0919C20.6346 19.2282 18.7495 17.511 18.1033 16.804C16.6873 15.2466 18.748 12.409 19.1662 10.2585C19.2222 9.95042 18.3551 9.58973 18.3097 10.1123C17.9631 13.0538 16.8079 15.035 15.2301 16.2705C12.0276 18.778 6.86573 19.5757 3.4758 17.1543C2.98434 16.8789 2.71344 17.3803 2.97508 17.6373C5.26934 19.883 12.7675 19.0766 13.313 22.6442C14.3931 29.4031 6.34697 24.3474 4.90935 20.684C4.53219 20.2587 3.77846 20.4648 4.01171 20.9425V20.9425Z" fill="#EB517A"/>
<path d="M46.2254 22.224C45.1801 22.224 44.2628 21.984 43.4734 21.504C42.6841 21.024 42.0654 20.3467 41.6174 19.472C41.1801 18.5973 40.9614 17.584 40.9614 16.432C40.9614 15.2693 41.1801 14.2507 41.6174 13.376C42.0654 12.5013 42.6841 11.824 43.4734 11.344C44.2628 10.864 45.1801 10.624 46.2254 10.624C47.2921 10.624 48.2201 10.864 49.0094 11.344C49.8094 11.824 50.4281 12.5013 50.8654 13.376C51.3134 14.24 51.5374 15.2587 51.5374 16.432C51.5374 17.5947 51.3134 18.6133 50.8654 19.488C50.4174 20.352 49.7934 21.024 48.9934 21.504C48.2041 21.984 47.2814 22.224 46.2254 22.224ZM46.2254 20.464C46.9401 20.464 47.5534 20.2987 48.0654 19.968C48.5774 19.6373 48.9721 19.1733 49.2494 18.576C49.5374 17.968 49.6814 17.2533 49.6814 16.432C49.6814 15.6 49.5374 14.8853 49.2494 14.288C48.9721 13.68 48.5774 13.2107 48.0654 12.88C47.5534 12.5493 46.9401 12.384 46.2254 12.384C45.5321 12.384 44.9294 12.5493 44.4174 12.88C43.9054 13.2 43.5054 13.664 43.2174 14.272C42.9401 14.8693 42.8014 15.5893 42.8014 16.432C42.8014 17.264 42.9401 17.984 43.2174 18.592C43.4948 19.1893 43.8894 19.6533 44.4014 19.984C44.9241 20.304 45.5321 20.464 46.2254 20.464ZM53.2822 25.264V14.112H55.0422V16.304L54.5942 16.32C54.7329 15.744 54.9355 15.2853 55.2022 14.944C55.4795 14.6027 55.8049 14.3573 56.1782 14.208C56.5622 14.048 56.9675 13.968 57.3942 13.968C58.0982 13.968 58.7062 14.1493 59.2182 14.512C59.7302 14.864 60.1249 15.3493 60.4022 15.968C60.6902 16.5867 60.8342 17.2853 60.8342 18.064C60.8342 18.9067 60.6795 19.6373 60.3702 20.256C60.0609 20.864 59.6449 21.3333 59.1222 21.664C58.6102 21.984 58.0342 22.144 57.3942 22.144C56.9462 22.144 56.5302 22.0587 56.1462 21.888C55.7729 21.7173 55.4529 21.4613 55.1862 21.12C54.9302 20.7787 54.7489 20.3627 54.6422 19.872L55.0422 19.792V25.264H53.2822ZM56.9622 20.528C57.3782 20.528 57.7409 20.4267 58.0502 20.224C58.3702 20.0213 58.6155 19.7333 58.7862 19.36C58.9569 18.9867 59.0422 18.5547 59.0422 18.064C59.0422 17.5733 58.9569 17.1413 58.7862 16.768C58.6155 16.3947 58.3702 16.1067 58.0502 15.904C57.7409 15.7013 57.3782 15.6 56.9622 15.6C56.5462 15.6 56.1782 15.7013 55.8582 15.904C55.5489 16.1067 55.3089 16.3947 55.1382 16.768C54.9675 17.1413 54.8822 17.5733 54.8822 18.064C54.8822 18.5547 54.9675 18.9867 55.1382 19.36C55.3089 19.7227 55.5489 20.0107 55.8582 20.224C56.1782 20.4267 56.5462 20.528 56.9622 20.528ZM66.0038 22.144C65.3425 22.144 64.7665 22.0373 64.2758 21.824C63.7958 21.6107 63.4011 21.312 63.0918 20.928C62.7825 20.544 62.5531 20.112 62.4038 19.632C62.2545 19.1413 62.1798 18.6347 62.1798 18.112C62.1798 17.5893 62.2491 17.0827 62.3878 16.592C62.5371 16.0907 62.7611 15.6427 63.0598 15.248C63.3585 14.8533 63.7425 14.544 64.2118 14.32C64.6811 14.0853 65.2358 13.968 65.8758 13.968C66.4838 13.968 67.0118 14.0747 67.4598 14.288C67.9185 14.4907 68.2971 14.7787 68.5958 15.152C68.8945 15.5147 69.1131 15.9307 69.2518 16.4C69.4011 16.8693 69.4758 17.3707 69.4758 17.904C69.4758 17.9787 69.4705 18.0853 69.4598 18.224C69.4598 18.3627 69.4491 18.5013 69.4278 18.64H63.9558C63.9985 19.2693 64.2118 19.7493 64.5958 20.08C64.9798 20.4107 65.4705 20.576 66.0678 20.576C66.5051 20.576 66.9051 20.5067 67.2678 20.368C67.6305 20.2293 67.9611 20.0107 68.2598 19.712L69.2358 20.896C68.9051 21.1947 68.5745 21.4347 68.2438 21.616C67.9131 21.7973 67.5665 21.9307 67.2038 22.016C66.8518 22.1013 66.4518 22.144 66.0038 22.144ZM67.7318 17.744C67.7531 17.6587 67.7638 17.5733 67.7638 17.488C67.7745 17.4027 67.7798 17.3173 67.7798 17.232C67.7798 16.9973 67.7371 16.7733 67.6518 16.56C67.5771 16.3467 67.4598 16.16 67.2998 16C67.1398 15.8293 66.9425 15.696 66.7078 15.6C66.4731 15.4933 66.2065 15.44 65.9078 15.44C65.4918 15.44 65.1398 15.5307 64.8518 15.712C64.5745 15.8933 64.3558 16.128 64.1958 16.416C64.0465 16.6933 63.9558 16.9973 63.9238 17.328H68.3078L67.7318 17.744ZM71.2041 22V14.112H72.9801V15.856L72.6601 15.936C72.7987 15.4773 73.0014 15.104 73.2681 14.816C73.5347 14.528 73.8441 14.3147 74.1961 14.176C74.5587 14.0373 74.9374 13.968 75.3321 13.968C76.2174 13.968 76.9054 14.224 77.3961 14.736C77.8974 15.2373 78.1481 15.9573 78.1481 16.896V22H76.3721V17.552C76.3721 16.848 76.2441 16.3307 75.9881 16C75.7321 15.6693 75.3374 15.504 74.8041 15.504C74.4094 15.504 74.0734 15.6 73.7961 15.792C73.5294 15.9733 73.3267 16.2613 73.1881 16.656C73.0494 17.0507 72.9801 17.552 72.9801 18.16V22H71.2041ZM87.9938 22.208C86.8205 22.208 85.8605 21.904 85.1138 21.296C84.3778 20.688 83.9245 19.8773 83.7538 18.864L85.5618 18.416C85.6791 19.12 85.9565 19.6533 86.3938 20.016C86.8418 20.3787 87.3911 20.56 88.0418 20.56C88.4045 20.56 88.7298 20.496 89.0178 20.368C89.3058 20.2293 89.5298 20.0373 89.6898 19.792C89.8605 19.5467 89.9458 19.2693 89.9458 18.96C89.9458 18.6293 89.8551 18.3573 89.6738 18.144C89.4925 17.92 89.2311 17.7227 88.8898 17.552C88.5485 17.3707 88.1325 17.184 87.6418 16.992C86.9698 16.736 86.3991 16.4587 85.9298 16.16C85.4605 15.8613 85.1031 15.5093 84.8578 15.104C84.6125 14.688 84.4898 14.1973 84.4898 13.632C84.4898 13.0453 84.6338 12.528 84.9218 12.08C85.2098 11.6213 85.6151 11.264 86.1378 11.008C86.6605 10.752 87.2631 10.624 87.9458 10.624C88.6818 10.624 89.3325 10.7893 89.8978 11.12C90.4631 11.4507 90.9165 11.952 91.2578 12.624L89.7858 13.52C89.5618 13.1147 89.2898 12.8053 88.9698 12.592C88.6498 12.368 88.2871 12.256 87.8818 12.256C87.5938 12.256 87.3325 12.3147 87.0978 12.432C86.8631 12.5387 86.6765 12.6933 86.5378 12.896C86.4098 13.0987 86.3458 13.3333 86.3458 13.6C86.3458 13.8773 86.4258 14.1227 86.5858 14.336C86.7458 14.5387 86.9911 14.7253 87.3218 14.896C87.6631 15.0667 88.0951 15.2533 88.6178 15.456C89.2898 15.712 89.8605 15.9893 90.3298 16.288C90.7991 16.5867 91.1565 16.944 91.4018 17.36C91.6578 17.7653 91.7858 18.2613 91.7858 18.848C91.7858 19.4987 91.6258 20.0747 91.3058 20.576C90.9858 21.0773 90.5378 21.4773 89.9618 21.776C89.3965 22.064 88.7405 22.208 87.9938 22.208ZM97.0061 22.144C96.2594 22.144 95.5874 21.968 94.9901 21.616C94.3927 21.264 93.9234 20.7787 93.5821 20.16C93.2514 19.5413 93.0861 18.8373 93.0861 18.048C93.0861 17.2587 93.2514 16.5547 93.5821 15.936C93.9234 15.3173 94.3874 14.8373 94.9741 14.496C95.5714 14.144 96.2487 13.968 97.0061 13.968C97.7741 13.968 98.4461 14.144 99.0221 14.496C99.6087 14.8373 100.073 15.3173 100.414 15.936C100.755 16.5547 100.926 17.2587 100.926 18.048C100.926 18.8373 100.755 19.5413 100.414 20.16C100.083 20.7787 99.6194 21.264 99.0221 21.616C98.4354 21.968 97.7634 22.144 97.0061 22.144ZM97.0221 20.576C97.4594 20.576 97.8381 20.4747 98.1581 20.272C98.4781 20.0693 98.7234 19.776 98.8941 19.392C99.0647 19.008 99.1501 18.56 99.1501 18.048C99.1501 17.5253 99.0647 17.0773 98.8941 16.704C98.7234 16.32 98.4781 16.0267 98.1581 15.824C97.8381 15.6213 97.4594 15.52 97.0221 15.52C96.5634 15.52 96.1741 15.6267 95.8541 15.84C95.5341 16.0427 95.2887 16.3307 95.1181 16.704C94.9474 17.0773 94.8621 17.5253 94.8621 18.048C94.8621 18.56 94.9474 19.008 95.1181 19.392C95.2887 19.776 95.5341 20.0693 95.8541 20.272C96.1741 20.4747 96.5634 20.576 97.0221 20.576ZM105.378 22.144C104.759 22.144 104.236 22.0213 103.81 21.776C103.394 21.5307 103.079 21.1787 102.866 20.72C102.652 20.2613 102.546 19.7067 102.546 19.056V14.112H104.322V18.576C104.322 18.992 104.37 19.3547 104.466 19.664C104.572 19.9627 104.738 20.192 104.962 20.352C105.196 20.512 105.511 20.592 105.906 20.592C106.364 20.592 106.722 20.4747 106.978 20.24C107.244 19.9947 107.431 19.6427 107.538 19.184C107.655 18.7147 107.714 18.1547 107.714 17.504V14.112H109.49V22H107.714V20.304L108.018 20.416C107.772 21.0133 107.415 21.4507 106.946 21.728C106.487 22.0053 105.964 22.144 105.378 22.144ZM111.579 22V14.112H113.371V16.24L113.035 16.288C113.088 15.8293 113.243 15.4293 113.499 15.088C113.755 14.736 114.064 14.464 114.427 14.272C114.8 14.0693 115.168 13.968 115.531 13.968C115.787 13.968 116.032 14 116.267 14.064C116.502 14.128 116.747 14.2347 117.003 14.384L116.139 15.984C116.022 15.9093 115.867 15.8507 115.675 15.808C115.494 15.7547 115.318 15.728 115.147 15.728C114.923 15.728 114.699 15.7707 114.475 15.856C114.262 15.9413 114.07 16.0747 113.899 16.256C113.728 16.4267 113.6 16.6507 113.515 16.928C113.462 17.0773 113.419 17.2747 113.387 17.52C113.366 17.7547 113.355 18.0853 113.355 18.512V22H111.579ZM121.268 22.144C120.65 22.144 120.1 22.0373 119.62 21.824C119.151 21.6 118.756 21.296 118.436 20.912C118.127 20.5173 117.892 20.0747 117.732 19.584C117.572 19.0933 117.492 18.5813 117.492 18.048C117.492 17.5147 117.572 17.0027 117.732 16.512C117.892 16.0213 118.127 15.584 118.436 15.2C118.756 14.816 119.151 14.5173 119.62 14.304C120.1 14.08 120.65 13.968 121.268 13.968C122.047 13.968 122.724 14.1547 123.3 14.528C123.887 14.9013 124.319 15.4773 124.596 16.256L123.028 16.864C122.9 16.4587 122.692 16.1333 122.404 15.888C122.116 15.632 121.738 15.504 121.268 15.504C120.799 15.504 120.415 15.6267 120.116 15.872C119.828 16.1173 119.615 16.432 119.476 16.816C119.338 17.2 119.268 17.6107 119.268 18.048C119.268 18.4853 119.338 18.9013 119.476 19.296C119.615 19.68 119.828 19.9947 120.116 20.24C120.415 20.4747 120.799 20.592 121.268 20.592C121.738 20.592 122.116 20.4693 122.404 20.224C122.692 19.9787 122.9 19.6533 123.028 19.248L124.596 19.856C124.319 20.624 123.887 21.2 123.3 21.584C122.724 21.9573 122.047 22.144 121.268 22.144ZM129.66 22.144C128.999 22.144 128.423 22.0373 127.932 21.824C127.452 21.6107 127.057 21.312 126.748 20.928C126.439 20.544 126.209 20.112 126.06 19.632C125.911 19.1413 125.836 18.6347 125.836 18.112C125.836 17.5893 125.905 17.0827 126.044 16.592C126.193 16.0907 126.417 15.6427 126.716 15.248C127.015 14.8533 127.399 14.544 127.868 14.32C128.337 14.0853 128.892 13.968 129.532 13.968C130.14 13.968 130.668 14.0747 131.116 14.288C131.575 14.4907 131.953 14.7787 132.252 15.152C132.551 15.5147 132.769 15.9307 132.908 16.4C133.057 16.8693 133.132 17.3707 133.132 17.904C133.132 17.9787 133.127 18.0853 133.116 18.224C133.116 18.3627 133.105 18.5013 133.084 18.64H127.612C127.655 19.2693 127.868 19.7493 128.252 20.08C128.636 20.4107 129.127 20.576 129.724 20.576C130.161 20.576 130.561 20.5067 130.924 20.368C131.287 20.2293 131.617 20.0107 131.916 19.712L132.892 20.896C132.561 21.1947 132.231 21.4347 131.9 21.616C131.569 21.7973 131.223 21.9307 130.86 22.016C130.508 22.1013 130.108 22.144 129.66 22.144ZM131.388 17.744C131.409 17.6587 131.42 17.5733 131.42 17.488C131.431 17.4027 131.436 17.3173 131.436 17.232C131.436 16.9973 131.393 16.7733 131.308 16.56C131.233 16.3467 131.116 16.16 130.956 16C130.796 15.8293 130.599 15.696 130.364 15.6C130.129 15.4933 129.863 15.44 129.564 15.44C129.148 15.44 128.796 15.5307 128.508 15.712C128.231 15.8933 128.012 16.128 127.852 16.416C127.703 16.6933 127.612 16.9973 127.58 17.328H131.964L131.388 17.744ZM139.113 22V10.848H142.921C144.009 10.848 144.862 11.0987 145.481 11.6C146.11 12.0907 146.425 12.7733 146.425 13.648C146.425 14.1813 146.313 14.6507 146.089 15.056C145.865 15.4507 145.55 15.7653 145.145 16C145.763 16.2027 146.227 16.5387 146.537 17.008C146.846 17.4773 147.001 18.064 147.001 18.768C147.001 19.7813 146.681 20.576 146.041 21.152C145.411 21.7173 144.526 22 143.385 22H139.113ZM140.969 20.304H143.241C144.521 20.304 145.161 19.7653 145.161 18.688C145.161 18.176 145.006 17.7813 144.697 17.504C144.398 17.216 143.977 17.072 143.433 17.072H140.969V20.304ZM140.969 15.408H143.049C143.518 15.408 143.891 15.28 144.169 15.024C144.446 14.7573 144.585 14.3947 144.585 13.936C144.585 13.4987 144.435 13.1573 144.137 12.912C143.849 12.6667 143.443 12.544 142.921 12.544H140.969V15.408ZM148.751 22V14.112H150.543V16.24L150.207 16.288C150.26 15.8293 150.415 15.4293 150.671 15.088C150.927 14.736 151.236 14.464 151.599 14.272C151.972 14.0693 152.34 13.968 152.703 13.968C152.959 13.968 153.204 14 153.439 14.064C153.674 14.128 153.919 14.2347 154.175 14.384L153.311 15.984C153.194 15.9093 153.039 15.8507 152.847 15.808C152.666 15.7547 152.49 15.728 152.319 15.728C152.095 15.728 151.871 15.7707 151.647 15.856C151.434 15.9413 151.242 16.0747 151.071 16.256C150.9 16.4267 150.772 16.6507 150.687 16.928C150.634 17.0773 150.591 17.2747 150.559 17.52C150.538 17.7547 150.527 18.0853 150.527 18.512V22H148.751ZM160.386 22L160.258 20.672V17.024C160.258 16.512 160.103 16.128 159.794 15.872C159.484 15.6053 159.052 15.472 158.498 15.472C158.071 15.472 157.65 15.5573 157.234 15.728C156.828 15.888 156.455 16.1387 156.114 16.48L155.122 15.312C155.634 14.832 156.178 14.4907 156.754 14.288C157.33 14.0747 157.959 13.968 158.642 13.968C159.708 13.968 160.535 14.24 161.122 14.784C161.719 15.3173 162.018 16.064 162.018 17.024V22H160.386ZM157.938 22.144C157.351 22.144 156.828 22.0373 156.37 21.824C155.922 21.6107 155.57 21.312 155.314 20.928C155.068 20.544 154.946 20.096 154.946 19.584C154.946 19.1467 155.036 18.768 155.218 18.448C155.41 18.128 155.655 17.8773 155.954 17.696C156.21 17.536 156.508 17.424 156.85 17.36C157.191 17.2853 157.548 17.248 157.922 17.248H160.402V18.576H158.178C157.986 18.576 157.794 18.5973 157.602 18.64C157.41 18.672 157.239 18.736 157.09 18.832C156.983 18.9173 156.892 19.024 156.818 19.152C156.754 19.28 156.722 19.4293 156.722 19.6C156.722 19.9413 156.85 20.2133 157.106 20.416C157.372 20.608 157.724 20.704 158.162 20.704C158.546 20.704 158.892 20.6187 159.202 20.448C159.522 20.2773 159.778 20.0427 159.97 19.744C160.162 19.4453 160.258 19.1093 160.258 18.736L160.802 19.616C160.674 20.1707 160.471 20.64 160.194 21.024C159.916 21.3973 159.586 21.68 159.202 21.872C158.818 22.0533 158.396 22.144 157.938 22.144ZM163.985 22V14.112H165.761V22H163.985ZM164.865 12.848C164.577 12.848 164.326 12.7413 164.113 12.528C163.91 12.3147 163.809 12.0587 163.809 11.76C163.809 11.4613 163.91 11.2107 164.113 11.008C164.316 10.8053 164.566 10.704 164.865 10.704C165.164 10.704 165.414 10.8053 165.617 11.008C165.83 11.2107 165.937 11.4613 165.937 11.76C165.937 12.0587 165.83 12.3147 165.617 12.528C165.414 12.7413 165.164 12.848 164.865 12.848ZM167.829 22V14.112H169.605V15.856L169.285 15.936C169.424 15.4773 169.626 15.104 169.893 14.816C170.16 14.528 170.469 14.3147 170.821 14.176C171.184 14.0373 171.562 13.968 171.957 13.968C172.842 13.968 173.53 14.224 174.021 14.736C174.522 15.2373 174.773 15.9573 174.773 16.896V22H172.997V17.552C172.997 16.848 172.869 16.3307 172.613 16C172.357 15.6693 171.962 15.504 171.429 15.504C171.034 15.504 170.698 15.6 170.421 15.792C170.154 15.9733 169.952 16.2613 169.813 16.656C169.674 17.0507 169.605 17.552 169.605 18.16V22H167.829Z" fill="white"/>
</svg>
